<svg id="SvgjsSvg2619" width="1445.2625427246094" height="861.6875228881836" xmlns="http://www.w3.org/2000/svg" version="1.1" xmlns:xlink="http://www.w3.org/1999/xlink" xmlns:svgjs="http://svgjs.com/svgjs"><defs id="SvgjsDefs2620"><pattern patternUnits="userSpaceOnUse" id="pattern_mark_0" width="300" height="300"><text x="150" y="100" fill="rgba(229,229,229,0.8)" font-size="18" transform="rotate(-45, 150, 150)" style="dominant-baseline: middle; text-anchor: middle;"></text></pattern><pattern patternUnits="userSpaceOnUse" id="pattern_mark_1" width="300" height="300"><text x="150" y="200" fill="rgba(229,229,229,0.8)" font-size="18" transform="rotate(-45, 150, 150)" style="dominant-baseline: middle; text-anchor: middle;"></text></pattern><marker id="SvgjsMarker2690" markerWidth="13" markerHeight="9" refX="9.5" refY="4.5" viewBox="0 0 13 9" orient="auto" markerUnits="userSpaceOnUse" stroke-dasharray="0,0"><path id="SvgjsPath2691" d="M0,0 L13,4.5 L0,9 L0,0" fill="#323232" stroke="#323232" stroke-width="1"></path></marker><marker id="SvgjsMarker2718" markerWidth="13" markerHeight="9" refX="9.5" refY="4.5" viewBox="0 0 13 9" orient="auto" markerUnits="userSpaceOnUse" stroke-dasharray="0,0"><path id="SvgjsPath2719" d="M0,0 L13,4.5 L0,9 L0,0" fill="#323232" stroke="#323232" stroke-width="1"></path></marker><marker id="SvgjsMarker2722" markerWidth="13" markerHeight="9" refX="9.5" refY="4.5" viewBox="0 0 13 9" orient="auto" markerUnits="userSpaceOnUse" stroke-dasharray="0,0"><path id="SvgjsPath2723" d="M0,0 L13,4.5 L0,9 L0,0" fill="#323232" stroke="#323232" stroke-width="1"></path></marker><marker id="SvgjsMarker2826" markerWidth="13" markerHeight="9" refX="9.5" refY="4.5" viewBox="0 0 13 9" orient="auto" markerUnits="userSpaceOnUse" stroke-dasharray="0,0"><path id="SvgjsPath2827" d="M0,0 L13,4.5 L0,9 L0,0" fill="#323232" stroke="#323232" stroke-width="1"></path></marker><marker id="SvgjsMarker2830" markerWidth="13" markerHeight="9" refX="9.5" refY="4.5" viewBox="0 0 13 9" orient="auto" markerUnits="userSpaceOnUse" stroke-dasharray="0,0"><path id="SvgjsPath2831" d="M0,0 L13,4.5 L0,9 L0,0" fill="#323232" stroke="#323232" stroke-width="1"></path></marker><marker id="SvgjsMarker2868" markerWidth="13" markerHeight="9" refX="9.5" refY="4.5" viewBox="0 0 13 9" orient="auto" markerUnits="userSpaceOnUse" stroke-dasharray="0,0"><path id="SvgjsPath2869" d="M0,0 L13,4.5 L0,9 L0,0" fill="#323232" stroke="#323232" stroke-width="1"></path></marker><marker id="SvgjsMarker2872" markerWidth="13" markerHeight="9" refX="9.5" refY="4.5" viewBox="0 0 13 9" orient="auto" markerUnits="userSpaceOnUse" stroke-dasharray="0,0"><path id="SvgjsPath2873" d="M0,0 L13,4.5 L0,9 L0,0" fill="#323232" stroke="#323232" stroke-width="1"></path></marker><marker id="SvgjsMarker2904" markerWidth="13" markerHeight="9" refX="9.5" refY="4.5" viewBox="0 0 13 9" orient="auto" markerUnits="userSpaceOnUse" stroke-dasharray="0,0"><path id="SvgjsPath2905" d="M0,0 L13,4.5 L0,9 L0,0" fill="#323232" stroke="#323232" stroke-width="1"></path></marker><marker id="SvgjsMarker2908" markerWidth="13" markerHeight="9" refX="9.5" refY="4.5" viewBox="0 0 13 9" orient="auto" markerUnits="userSpaceOnUse" stroke-dasharray="0,0"><path id="SvgjsPath2909" d="M0,0 L13,4.5 L0,9 L0,0" fill="#323232" stroke="#323232" stroke-width="1"></path></marker><marker id="SvgjsMarker2926" markerWidth="13" markerHeight="9" refX="9.5" refY="4.5" viewBox="0 0 13 9" orient="auto" markerUnits="userSpaceOnUse" stroke-dasharray="0,0"><path id="SvgjsPath2927" d="M0,0 L13,4.5 L0,9 L0,0" fill="#323232" stroke="#323232" stroke-width="1"></path></marker><marker id="SvgjsMarker2930" markerWidth="13" markerHeight="9" refX="9.5" refY="4.5" viewBox="0 0 13 9" orient="auto" markerUnits="userSpaceOnUse" stroke-dasharray="0,0"><path id="SvgjsPath2931" d="M0,0 L13,4.5 L0,9 L0,0" fill="#323232" stroke="#323232" stroke-width="1"></path></marker><marker id="SvgjsMarker2934" markerWidth="13" markerHeight="9" refX="9.5" refY="4.5" viewBox="0 0 13 9" orient="auto" markerUnits="userSpaceOnUse" stroke-dasharray="0,0"><path id="SvgjsPath2935" d="M0,0 L13,4.5 L0,9 L0,0" fill="#323232" stroke="#323232" stroke-width="1"></path></marker><marker id="SvgjsMarker2938" markerWidth="13" markerHeight="9" refX="9.5" refY="4.5" viewBox="0 0 13 9" orient="auto" markerUnits="userSpaceOnUse" stroke-dasharray="0,0"><path id="SvgjsPath2939" d="M0,0 L13,4.5 L0,9 L0,0" fill="#323232" stroke="#323232" stroke-width="1"></path></marker><marker id="SvgjsMarker2942" markerWidth="13" markerHeight="9" refX="9.5" refY="4.5" viewBox="0 0 13 9" orient="auto" markerUnits="userSpaceOnUse" stroke-dasharray="0,0"><path id="SvgjsPath2943" d="M0,0 L13,4.5 L0,9 L0,0" fill="#323232" stroke="#323232" stroke-width="1"></path></marker></defs><rect id="svgbackgroundid" width="1445.2625427246094" height="861.6875228881836" fill="transparent"></rect><rect id="SvgjsRect2622" width="1445.2625427246094" height="861.6875228881836" fill="url(#pattern_mark_0)"></rect><rect id="SvgjsRect2623" width="1445.2625427246094" height="861.6875228881836" fill="url(#pattern_mark_1)"></rect><g id="SvgjsG2624" transform="translate(843.0125122070312,76.4124984741211)"><path id="SvgjsPath2625" d="M 0 4Q 0 0 4 0L 226 0Q 230 0 230 4L 230 203Q 230 207 226 207L 4 207Q 0 207 0 203Z" stroke="rgba(33,41,48,1)" stroke-width="1.5" fill-opacity="1" fill="#ffffff"></path><path id="SvgjsPath2626" d="M 0 30L 230 30" stroke="rgba(33,41,48,1)" stroke-width="1.5" fill="none"></path><path id="SvgjsPath2627" d="M 0 0L 230 0L 230 207L 0 207Z" stroke="none" fill="none"></path><g id="SvgjsG2628"><text id="SvgjsText2629" font-family="微软雅黑" text-anchor="middle" font-size="13px" width="210px" fill="#323232" font-weight="700" align="middle" lineHeight="125%" anchor="middle" family="微软雅黑" size="13px" weight="700" font-style="" opacity="1" y="4.375" transform="rotate(0)"><tspan id="SvgjsTspan2630" dy="16.25" x="115"><tspan id="SvgjsTspan2631" style="">预制菜类型</tspan></tspan></text></g><g id="SvgjsG2632"><text id="SvgjsText2633" font-family="微软雅黑" text-anchor="start" font-size="13px" width="210px" fill="#323232" font-weight="400" align="middle" lineHeight="125%" anchor="start" family="微软雅黑" size="13px" weight="400" font-style="" opacity="1" y="34.375" transform="rotate(0)"><tspan id="SvgjsTspan2634" dy="16.25" x="10"><tspan id="SvgjsTspan2635" style="">产品名称</tspan></tspan><tspan id="SvgjsTspan2636" dy="16.25" x="10"><tspan id="SvgjsTspan2637" style="">产品认证日期</tspan></tspan><tspan id="SvgjsTspan2638" dy="16.25" x="10"><tspan id="SvgjsTspan2639" style="">产品认证有效期</tspan></tspan><tspan id="SvgjsTspan2640" dy="16.25" x="10"><tspan id="SvgjsTspan2641" style="">产品描述</tspan></tspan><tspan id="SvgjsTspan2642" dy="16.25" x="10"><tspan id="SvgjsTspan2643" style=""> </tspan></tspan><tspan id="SvgjsTspan2644" dy="16.25" x="10"><tspan id="SvgjsTspan2645" style="">产品预览图</tspan></tspan><tspan id="SvgjsTspan2646" dy="16.25" x="10"><tspan id="SvgjsTspan2647" style="">制作环境真实摄制图片</tspan></tspan><tspan id="SvgjsTspan2648" dy="16.25" x="10"><tspan id="SvgjsTspan2649" style="">产品营养成分表</tspan></tspan><tspan id="SvgjsTspan2650" dy="16.25" x="10"><tspan id="SvgjsTspan2651" style="">产品销量热度统计表</tspan></tspan><tspan id="SvgjsTspan2652" dy="16.25" x="10"><tspan id="SvgjsTspan2653" style="">产品评论区</tspan></tspan></text></g></g><g id="SvgjsG2654" transform="translate(1190.2625122070312,136.2624969482422)"><path id="SvgjsPath2655" d="M 0 4Q 0 0 4 0L 226 0Q 230 0 230 4L 230 105Q 230 109 226 109L 4 109Q 0 109 0 105Z" stroke="rgba(0,0,0,1)" stroke-width="1.5" fill-opacity="1" fill="#ffffff"></path><path id="SvgjsPath2656" d="M 0 30L 230 30" stroke="rgba(0,0,0,1)" stroke-width="1.5" fill="none"></path><path id="SvgjsPath2657" d="M 0 0L 230 0L 230 109L 0 109Z" stroke="none" fill="none"></path><g id="SvgjsG2658"><text id="SvgjsText2659" font-family="微软雅黑" text-anchor="middle" font-size="13px" width="210px" fill="#323232" font-weight="700" align="middle" lineHeight="125%" anchor="middle" family="微软雅黑" size="13px" weight="700" font-style="" opacity="1" y="4.375" transform="rotate(0)"><tspan id="SvgjsTspan2660" dy="16.25" x="115"><tspan id="SvgjsTspan2661" style="">预制菜</tspan></tspan></text></g><g id="SvgjsG2662"><text id="SvgjsText2663" font-family="微软雅黑" text-anchor="start" font-size="13px" width="210px" fill="#323232" font-weight="400" align="middle" lineHeight="125%" anchor="start" family="微软雅黑" size="13px" weight="400" font-style="" opacity="1" y="34.375" transform="rotate(0)"><tspan id="SvgjsTspan2664" dy="16.25" x="10"><tspan id="SvgjsTspan2665" style="">预制菜类型</tspan></tspan><tspan id="SvgjsTspan2666" dy="16.25" x="10"><tspan id="SvgjsTspan2667" style="">运输链</tspan></tspan><tspan id="SvgjsTspan2668" dy="16.25" x="10"><tspan id="SvgjsTspan2669" style="">产品原料表</tspan></tspan><tspan id="SvgjsTspan2670" dy="16.25" x="10"><tspan id="SvgjsTspan2671" style="">制作信息</tspan></tspan></text></g></g><g id="SvgjsG2672" transform="translate(31.26251220703125,369.8569352891709)"><path id="SvgjsPath2673" d="M 0 4Q 0 0 4 0L 226 0Q 230 0 230 4L 230 89Q 230 93 226 93L 4 93Q 0 93 0 89Z" stroke="rgba(33,41,48,1)" stroke-width="1.5" fill-opacity="1" fill="#ffffff"></path><path id="SvgjsPath2674" d="M 0 30L 230 30" stroke="rgba(33,41,48,1)" stroke-width="1.5" fill="none"></path><path id="SvgjsPath2675" d="M 0 0L 230 0L 230 93L 0 93Z" stroke="none" fill="none"></path><g id="SvgjsG2676"><text id="SvgjsText2677" font-family="微软雅黑" text-anchor="middle" font-size="13px" width="210px" fill="#323232" font-weight="700" align="middle" lineHeight="125%" anchor="middle" family="微软雅黑" size="13px" weight="700" font-style="" opacity="1" y="4.375" transform="rotate(0)"><tspan id="SvgjsTspan2678" dy="16.25" x="115"><tspan id="SvgjsTspan2679" style="">产品评论区</tspan></tspan></text></g><g id="SvgjsG2680"><text id="SvgjsText2681" font-family="微软雅黑" text-anchor="start" font-size="13px" width="210px" fill="#323232" font-weight="400" align="middle" lineHeight="125%" anchor="start" family="微软雅黑" size="13px" weight="400" font-style="" opacity="1" y="34.375" transform="rotate(0)"><tspan id="SvgjsTspan2682" dy="16.25" x="10"><tspan id="SvgjsTspan2683" style="">用户名</tspan></tspan><tspan id="SvgjsTspan2684" dy="16.25" x="10"><tspan id="SvgjsTspan2685" style="">评分</tspan></tspan><tspan id="SvgjsTspan2686" dy="16.25" x="10"><tspan id="SvgjsTspan2687" style="">评论内容</tspan></tspan></text></g></g><g id="SvgjsG2688"><path id="SvgjsPath2689" d="M262.01251220703125 416.3569352891709L281.26251220703125 416.3569352891709L281.26251220703125 268.4124984741211L841.0625122070312 268.4124984741211" stroke="#323232" stroke-width="1.5" fill="none" marker-end="url(#SvgjsMarker2690)"></path></g><g id="SvgjsG2692" transform="translate(25.01251220703125,25.012496948242188)"><path id="SvgjsPath2693" d="M 0 4Q 0 0 4 0L 226 0Q 230 0 230 4L 230 56Q 230 60 226 60L 4 60Q 0 60 0 56Z" stroke="rgba(33,41,48,1)" stroke-width="1.5" fill-opacity="1" fill="#ffffff"></path><path id="SvgjsPath2694" d="M 0 30L 230 30" stroke="rgba(33,41,48,1)" stroke-width="1.5" fill="none"></path><path id="SvgjsPath2695" d="M 0 0L 230 0L 230 60L 0 60Z" stroke="none" fill="none"></path><g id="SvgjsG2696"><text id="SvgjsText2697" font-family="微软雅黑" text-anchor="middle" font-size="13px" width="210px" fill="#323232" font-weight="700" align="middle" lineHeight="125%" anchor="middle" family="微软雅黑" size="13px" weight="700" font-style="" opacity="1" y="4.375" transform="rotate(0)"><tspan id="SvgjsTspan2698" dy="16.25" x="115"><tspan id="SvgjsTspan2699" style="">产品预览图</tspan></tspan></text></g><g id="SvgjsG2700"><text id="SvgjsText2701" font-family="微软雅黑" text-anchor="start" font-size="13px" width="210px" fill="#323232" font-weight="400" align="middle" lineHeight="125%" anchor="start" family="微软雅黑" size="13px" weight="400" font-style="" opacity="1" y="34.375" transform="rotate(0)"><tspan id="SvgjsTspan2702" dy="16.25" x="10"><tspan id="SvgjsTspan2703" style="">图片</tspan></tspan></text></g></g><g id="SvgjsG2704" transform="translate(25.01251220703125,98.72360653347437)"><path id="SvgjsPath2705" d="M 0 4Q 0 0 4 0L 226 0Q 230 0 230 4L 230 56Q 230 60 226 60L 4 60Q 0 60 0 56Z" stroke="rgba(33,41,48,1)" stroke-width="1.5" fill-opacity="1" fill="#ffffff"></path><path id="SvgjsPath2706" d="M 0 30L 230 30" stroke="rgba(33,41,48,1)" stroke-width="1.5" fill="none"></path><path id="SvgjsPath2707" d="M 0 0L 230 0L 230 60L 0 60Z" stroke="none" fill="none"></path><g id="SvgjsG2708"><text id="SvgjsText2709" font-family="微软雅黑" text-anchor="middle" font-size="13px" width="210px" fill="#323232" font-weight="700" align="middle" lineHeight="125%" anchor="middle" family="微软雅黑" size="13px" weight="700" font-style="" opacity="1" y="4.375" transform="rotate(0)"><tspan id="SvgjsTspan2710" dy="16.25" x="115"><tspan id="SvgjsTspan2711" style="">制作环境真实摄制图片</tspan></tspan></text></g><g id="SvgjsG2712"><text id="SvgjsText2713" font-family="微软雅黑" text-anchor="start" font-size="13px" width="210px" fill="#323232" font-weight="400" align="middle" lineHeight="125%" anchor="start" family="微软雅黑" size="13px" weight="400" font-style="" opacity="1" y="34.375" transform="rotate(0)"><tspan id="SvgjsTspan2714" dy="16.25" x="10"><tspan id="SvgjsTspan2715" style="">图片</tspan></tspan></text></g></g><g id="SvgjsG2716"><path id="SvgjsPath2717" d="M255.76251220703125 128.72360653347437L539.9375152587891 128.72360653347437L539.9375152587891 197.4124984741211L840.9125183105468 197.4124984741211" stroke="#323232" stroke-width="1.5" fill="none" marker-end="url(#SvgjsMarker2718)"></path></g><g id="SvgjsG2720"><path id="SvgjsPath2721" d="M255.76251220703125 55.01249694824219L549.0125122070312 55.01249694824219L549.0125122070312 180.4124984741211L840.3125122070312 180.4124984741211" stroke="#323232" stroke-width="1.5" fill="none" marker-end="url(#SvgjsMarker2722)"></path></g><g id="SvgjsG2724" transform="translate(843.0125122070312,527.55138736301)"><path id="SvgjsPath2725" d="M 0 4Q 0 0 4 0L 226 0Q 230 0 230 4L 230 170Q 230 174 226 174L 4 174Q 0 174 0 170Z" stroke="rgba(0,0,0,1)" stroke-width="1.5" fill-opacity="1" fill="#ffffff"></path><path id="SvgjsPath2726" d="M 0 30L 230 30" stroke="rgba(0,0,0,1)" stroke-width="1.5" fill="none"></path><path id="SvgjsPath2727" d="M 0 0L 230 0L 230 174L 0 174Z" stroke="none" fill="none"></path><g id="SvgjsG2728"><text id="SvgjsText2729" font-family="微软雅黑" text-anchor="middle" font-size="13px" width="210px" fill="#323232" font-weight="700" align="middle" lineHeight="125%" anchor="middle" family="微软雅黑" size="13px" weight="700" font-style="" opacity="1" y="4.375" transform="rotate(0)"><tspan id="SvgjsTspan2730" dy="16.25" x="115"><tspan id="SvgjsTspan2731" style="">原料数据表</tspan></tspan></text></g><g id="SvgjsG2732"><text id="SvgjsText2733" font-family="微软雅黑" text-anchor="start" font-size="13px" width="210px" fill="#323232" font-weight="400" align="middle" lineHeight="125%" anchor="start" family="微软雅黑" size="13px" weight="400" font-style="" opacity="1" y="34.375" transform="rotate(0)"><tspan id="SvgjsTspan2734" dy="16.25" x="10"><tspan id="SvgjsTspan2735" style="">原料名</tspan></tspan><tspan id="SvgjsTspan2736" dy="16.25" x="10"><tspan id="SvgjsTspan2737" style="">供应商</tspan></tspan><tspan id="SvgjsTspan2738" dy="16.25" x="10"><tspan id="SvgjsTspan2739" style="">原料产地</tspan></tspan><tspan id="SvgjsTspan2740" dy="16.25" x="10"><tspan id="SvgjsTspan2741" style="">购入时间</tspan></tspan><tspan id="SvgjsTspan2742" dy="16.25" x="10"><tspan id="SvgjsTspan2743" style="">检验报告</tspan></tspan><tspan id="SvgjsTspan2744" dy="16.25" x="10"><tspan id="SvgjsTspan2745" style=""> </tspan></tspan><tspan id="SvgjsTspan2746" dy="16.25" x="10"><tspan id="SvgjsTspan2747" style="">养殖区/产地展示图</tspan></tspan><tspan id="SvgjsTspan2748" dy="16.25" x="10"><tspan id="SvgjsTspan2749" style="">贮存区展示图</tspan></tspan></text></g></g><g id="SvgjsG2750" transform="translate(31.26251220703125,263.1458257039387)"><path id="SvgjsPath2751" d="M 0 4Q 0 0 4 0L 226 0Q 230 0 230 4L 230 89Q 230 93 226 93L 4 93Q 0 93 0 89Z" stroke="rgba(0,0,0,1)" stroke-width="1.5" fill-opacity="1" fill="#ffffff"></path><path id="SvgjsPath2752" d="M 0 30L 230 30" stroke="rgba(0,0,0,1)" stroke-width="1.5" fill="none"></path><path id="SvgjsPath2753" d="M 0 0L 230 0L 230 93L 0 93Z" stroke="none" fill="none"></path><g id="SvgjsG2754"><text id="SvgjsText2755" font-family="微软雅黑" text-anchor="middle" font-size="13px" width="210px" fill="#323232" font-weight="700" align="middle" lineHeight="125%" anchor="middle" family="微软雅黑" size="13px" weight="700" font-style="" opacity="1" y="4.375" transform="rotate(0)"><tspan id="SvgjsTspan2756" dy="16.25" x="115"><tspan id="SvgjsTspan2757" style="">产品销量热度统计表</tspan></tspan></text></g><g id="SvgjsG2758"><text id="SvgjsText2759" font-family="微软雅黑" text-anchor="start" font-size="13px" width="210px" fill="#323232" font-weight="400" align="middle" lineHeight="125%" anchor="start" family="微软雅黑" size="13px" weight="400" font-style="" opacity="1" y="34.375" transform="rotate(0)"><tspan id="SvgjsTspan2760" dy="16.25" x="10"><tspan id="SvgjsTspan2761" style="">销售区</tspan></tspan><tspan id="SvgjsTspan2762" dy="16.25" x="10"><tspan id="SvgjsTspan2763" style="">月度（某年某月）</tspan></tspan><tspan id="SvgjsTspan2764" dy="16.25" x="10"><tspan id="SvgjsTspan2765" style="">销售量</tspan></tspan></text></g></g><g id="SvgjsG2766" transform="translate(843.0125122070312,727.7013888888889)"><path id="SvgjsPath2767" d="M 0 4Q 0 0 4 0L 226 0Q 230 0 230 4L 230 105Q 230 109 226 109L 4 109Q 0 109 0 105Z" stroke="rgba(0,0,0,1)" stroke-width="1.5" fill-opacity="1" fill="#ffffff"></path><path id="SvgjsPath2768" d="M 0 30L 230 30" stroke="rgba(0,0,0,1)" stroke-width="1.5" fill="none"></path><path id="SvgjsPath2769" d="M 0 0L 230 0L 230 109L 0 109Z" stroke="none" fill="none"></path><g id="SvgjsG2770"><text id="SvgjsText2771" font-family="微软雅黑" text-anchor="middle" font-size="13px" width="210px" fill="#323232" font-weight="700" align="middle" lineHeight="125%" anchor="middle" family="微软雅黑" size="13px" weight="700" font-style="" opacity="1" y="4.375" transform="rotate(0)"><tspan id="SvgjsTspan2772" dy="16.25" x="115"><tspan id="SvgjsTspan2773" style="">制作信息</tspan></tspan></text></g><g id="SvgjsG2774"><text id="SvgjsText2775" font-family="微软雅黑" text-anchor="start" font-size="13px" width="210px" fill="#323232" font-weight="400" align="middle" lineHeight="125%" anchor="start" family="微软雅黑" size="13px" weight="400" font-style="" opacity="1" y="34.375" transform="rotate(0)"><tspan id="SvgjsTspan2776" dy="16.25" x="10"><tspan id="SvgjsTspan2777" style="">制作流程</tspan></tspan><tspan id="SvgjsTspan2778" dy="16.25" x="10"><tspan id="SvgjsTspan2779" style="">配料表</tspan></tspan><tspan id="SvgjsTspan2780" dy="16.25" x="10"><tspan id="SvgjsTspan2781" style="">制作设备信息</tspan></tspan><tspan id="SvgjsTspan2782" dy="16.25" x="10"><tspan id="SvgjsTspan2783" style="">制作人员信息</tspan></tspan></text></g></g><g id="SvgjsG2784" transform="translate(368.3625183105469,305.2624969482422)"><path id="SvgjsPath2785" d="M 0 4Q 0 0 4 0L 226 0Q 230 0 230 4L 230 56Q 230 60 226 60L 4 60Q 0 60 0 56Z" stroke="rgba(0,0,0,1)" stroke-width="1.5" fill-opacity="1" fill="#ffffff"></path><path id="SvgjsPath2786" d="M 0 30L 230 30" stroke="rgba(0,0,0,1)" stroke-width="1.5" fill="none"></path><path id="SvgjsPath2787" d="M 0 0L 230 0L 230 60L 0 60Z" stroke="none" fill="none"></path><g id="SvgjsG2788"><text id="SvgjsText2789" font-family="微软雅黑" text-anchor="middle" font-size="13px" width="210px" fill="#323232" font-weight="700" align="middle" lineHeight="125%" anchor="middle" family="微软雅黑" size="13px" weight="700" font-style="" opacity="1" y="4.375" transform="rotate(0)"><tspan id="SvgjsTspan2790" dy="16.25" x="115"><tspan id="SvgjsTspan2791" style="">养殖区/产地展示图</tspan></tspan></text></g><g id="SvgjsG2792"><text id="SvgjsText2793" font-family="微软雅黑" text-anchor="start" font-size="13px" width="210px" fill="#323232" font-weight="400" align="middle" lineHeight="125%" anchor="start" family="微软雅黑" size="13px" weight="400" font-style="" opacity="1" y="34.375" transform="rotate(0)"><tspan id="SvgjsTspan2794" dy="16.25" x="10"><tspan id="SvgjsTspan2795" style="">图片</tspan></tspan></text></g></g><g id="SvgjsG2796" transform="translate(368.3625183105469,378.80138736301)"><path id="SvgjsPath2797" d="M 0 4Q 0 0 4 0L 226 0Q 230 0 230 4L 230 56Q 230 60 226 60L 4 60Q 0 60 0 56Z" stroke="rgba(33,41,48,1)" stroke-width="1.5" fill-opacity="1" fill="#ffffff"></path><path id="SvgjsPath2798" d="M 0 30L 230 30" stroke="rgba(33,41,48,1)" stroke-width="1.5" fill="none"></path><path id="SvgjsPath2799" d="M 0 0L 230 0L 230 60L 0 60Z" stroke="none" fill="none"></path><g id="SvgjsG2800"><text id="SvgjsText2801" font-family="微软雅黑" text-anchor="middle" font-size="13px" width="210px" fill="#323232" font-weight="700" align="middle" lineHeight="125%" anchor="middle" family="微软雅黑" size="13px" weight="700" font-style="" opacity="1" y="4.375" transform="rotate(0)"><tspan id="SvgjsTspan2802" dy="16.25" x="115"><tspan id="SvgjsTspan2803" style="">贮存区展示图</tspan></tspan></text></g><g id="SvgjsG2804"><text id="SvgjsText2805" font-family="微软雅黑" text-anchor="start" font-size="13px" width="210px" fill="#323232" font-weight="400" align="middle" lineHeight="125%" anchor="start" family="微软雅黑" size="13px" weight="400" font-style="" opacity="1" y="34.375" transform="rotate(0)"><tspan id="SvgjsTspan2806" dy="16.25" x="10"><tspan id="SvgjsTspan2807" style="">图片</tspan></tspan></text></g></g><g id="SvgjsG2808" transform="translate(368.3625183105469,459.80138736301)"><path id="SvgjsPath2809" d="M 0 4Q 0 0 4 0L 226 0Q 230 0 230 4L 230 89Q 230 93 226 93L 4 93Q 0 93 0 89Z" stroke="rgba(33,41,48,1)" stroke-width="1.5" fill-opacity="1" fill="#ffffff"></path><path id="SvgjsPath2810" d="M 0 30L 230 30" stroke="rgba(33,41,48,1)" stroke-width="1.5" fill="none"></path><path id="SvgjsPath2811" d="M 0 0L 230 0L 230 93L 0 93Z" stroke="none" fill="none"></path><g id="SvgjsG2812"><text id="SvgjsText2813" font-family="微软雅黑" text-anchor="middle" font-size="13px" width="210px" fill="#323232" font-weight="700" align="middle" lineHeight="125%" anchor="middle" family="微软雅黑" size="13px" weight="700" font-style="" opacity="1" y="4.375" transform="rotate(0)"><tspan id="SvgjsTspan2814" dy="16.25" x="115"><tspan id="SvgjsTspan2815" style="">配料表</tspan></tspan></text></g><g id="SvgjsG2816"><text id="SvgjsText2817" font-family="微软雅黑" text-anchor="start" font-size="13px" width="210px" fill="#323232" font-weight="400" align="middle" lineHeight="125%" anchor="start" family="微软雅黑" size="13px" weight="400" font-style="" opacity="1" y="34.375" transform="rotate(0)"><tspan id="SvgjsTspan2818" dy="16.25" x="10"><tspan id="SvgjsTspan2819" style="">配料名称</tspan></tspan><tspan id="SvgjsTspan2820" dy="16.25" x="10"><tspan id="SvgjsTspan2821" style="">配料制作厂商</tspan></tspan><tspan id="SvgjsTspan2822" dy="16.25" x="10"><tspan id="SvgjsTspan2823" style="">配料用量</tspan></tspan></text></g></g><g id="SvgjsG2824"><path id="SvgjsPath2825" d="M599.1125183105469 506.30138736301L638.2375183105469 506.30138736301L638.2375183105469 710.1624870300293L740.7250213623047 710.1624870300293L740.7250213623047 789.5624885559082L840.5125244140625 789.5624885559082" stroke="#323232" stroke-width="1.5" fill="none" marker-end="url(#SvgjsMarker2826)"></path></g><g id="SvgjsG2828"><path id="SvgjsPath2829" d="M1073.7625122070312 782.2013888888889L1128.812515258789 782.2013888888889L1128.812515258789 230.1624870300293L1187.9125183105468 230.1624870300293" stroke="#323232" stroke-width="1.5" fill="none" marker-end="url(#SvgjsMarker2830)"></path></g><g id="SvgjsG2832" transform="translate(368.3625183105469,573.80138736301)"><path id="SvgjsPath2833" d="M 0 4Q 0 0 4 0L 226 0Q 230 0 230 4L 230 89Q 230 93 226 93L 4 93Q 0 93 0 89Z" stroke="rgba(0,0,0,1)" stroke-width="1.5" fill-opacity="1" fill="#ffffff"></path><path id="SvgjsPath2834" d="M 0 30L 230 30" stroke="rgba(0,0,0,1)" stroke-width="1.5" fill="none"></path><path id="SvgjsPath2835" d="M 0 0L 230 0L 230 93L 0 93Z" stroke="none" fill="none"></path><g id="SvgjsG2836"><text id="SvgjsText2837" font-family="微软雅黑" text-anchor="middle" font-size="13px" width="210px" fill="#323232" font-weight="700" align="middle" lineHeight="125%" anchor="middle" family="微软雅黑" size="13px" weight="700" font-style="" opacity="1" y="4.375" transform="rotate(0)"><tspan id="SvgjsTspan2838" dy="16.25" x="115"><tspan id="SvgjsTspan2839" style="">制作设备信息</tspan></tspan></text></g><g id="SvgjsG2840"><text id="SvgjsText2841" font-family="微软雅黑" text-anchor="start" font-size="13px" width="210px" fill="#323232" font-weight="400" align="middle" lineHeight="125%" anchor="start" family="微软雅黑" size="13px" weight="400" font-style="" opacity="1" y="34.375" transform="rotate(0)"><tspan id="SvgjsTspan2842" dy="16.25" x="10"><tspan id="SvgjsTspan2843" style="">设备类型</tspan></tspan><tspan id="SvgjsTspan2844" dy="16.25" x="10"><tspan id="SvgjsTspan2845" style="">设备型号</tspan></tspan><tspan id="SvgjsTspan2846" dy="16.25" x="10"><tspan id="SvgjsTspan2847" style="">至今检修间隔</tspan></tspan></text></g></g><g id="SvgjsG2848" transform="translate(368.3625183105469,687.80138736301)"><path id="SvgjsPath2849" d="M 0 4Q 0 0 4 0L 226 0Q 230 0 230 4L 230 105Q 230 109 226 109L 4 109Q 0 109 0 105Z" stroke="rgba(33,41,48,1)" stroke-width="1.5" fill-opacity="1" fill="#ffffff"></path><path id="SvgjsPath2850" d="M 0 30L 230 30" stroke="rgba(33,41,48,1)" stroke-width="1.5" fill="none"></path><path id="SvgjsPath2851" d="M 0 0L 230 0L 230 109L 0 109Z" stroke="none" fill="none"></path><g id="SvgjsG2852"><text id="SvgjsText2853" font-family="微软雅黑" text-anchor="middle" font-size="13px" width="210px" fill="#323232" font-weight="700" align="middle" lineHeight="125%" anchor="middle" family="微软雅黑" size="13px" weight="700" font-style="" opacity="1" y="4.375" transform="rotate(0)"><tspan id="SvgjsTspan2854" dy="16.25" x="115"><tspan id="SvgjsTspan2855" style="">制作人员信息</tspan></tspan></text></g><g id="SvgjsG2856"><text id="SvgjsText2857" font-family="微软雅黑" text-anchor="start" font-size="13px" width="210px" fill="#323232" font-weight="400" align="middle" lineHeight="125%" anchor="start" family="微软雅黑" size="13px" weight="400" font-style="" opacity="1" y="34.375" transform="rotate(0)"><tspan id="SvgjsTspan2858" dy="16.25" x="10"><tspan id="SvgjsTspan2859" style="">员工名称</tspan></tspan><tspan id="SvgjsTspan2860" dy="16.25" x="10"><tspan id="SvgjsTspan2861" style="">员工编号</tspan></tspan><tspan id="SvgjsTspan2862" dy="16.25" x="10"><tspan id="SvgjsTspan2863" style="">员工职责</tspan></tspan><tspan id="SvgjsTspan2864" dy="16.25" x="10"><tspan id="SvgjsTspan2865" style="">员工健康状况</tspan></tspan></text></g></g><g id="SvgjsG2866"><path id="SvgjsPath2867" d="M599.1125183105469 620.30138736301L618.0500183105469 620.30138736301L618.0500183105469 726.4124870300293L730.5062713623047 726.4124870300293L730.5062713623047 805.8124885559082L840.2625244140625 805.8124885559082" stroke="#323232" stroke-width="1.5" fill="none" marker-end="url(#SvgjsMarker2868)"></path></g><g id="SvgjsG2870"><path id="SvgjsPath2871" d="M599.1125183105469 742.30138736301L720.9125213623047 742.30138736301L720.9125213623047 820.8124885559082L840.7625244140625 820.8124885559082" stroke="#323232" stroke-width="1.5" fill="none" marker-end="url(#SvgjsMarker2872)"></path></g><g id="SvgjsG2874" transform="translate(843.0125122070312,310.80138736301)"><path id="SvgjsPath2875" d="M 0 4Q 0 0 4 0L 226 0Q 230 0 230 4L 230 186Q 230 190 226 190L 4 190Q 0 190 0 186Z" stroke="rgba(0,0,0,1)" stroke-width="1.5" fill-opacity="1" fill="#ffffff"></path><path id="SvgjsPath2876" d="M 0 30L 230 30" stroke="rgba(0,0,0,1)" stroke-width="1.5" fill="none"></path><path id="SvgjsPath2877" d="M 0 0L 230 0L 230 190L 0 190Z" stroke="none" fill="none"></path><g id="SvgjsG2878"><text id="SvgjsText2879" font-family="微软雅黑" text-anchor="middle" font-size="13px" width="210px" fill="#323232" font-weight="700" align="middle" lineHeight="125%" anchor="middle" family="微软雅黑" size="13px" weight="700" font-style="" opacity="1" y="4.375" transform="rotate(0)"><tspan id="SvgjsTspan2880" dy="16.25" x="115"><tspan id="SvgjsTspan2881" style="">运输链</tspan></tspan></text></g><g id="SvgjsG2882"><text id="SvgjsText2883" font-family="微软雅黑" text-anchor="start" font-size="13px" width="210px" fill="#323232" font-weight="400" align="middle" lineHeight="125%" anchor="start" family="微软雅黑" size="13px" weight="400" font-style="" opacity="1" y="34.375" transform="rotate(0)"><tspan id="SvgjsTspan2884" dy="16.25" x="10"><tspan id="SvgjsTspan2885" style="">生产批次</tspan></tspan><tspan id="SvgjsTspan2886" dy="16.25" x="10"><tspan id="SvgjsTspan2887" style="">当前所在地</tspan></tspan><tspan id="SvgjsTspan2888" dy="16.25" x="10"><tspan id="SvgjsTspan2889" style=""> </tspan></tspan><tspan id="SvgjsTspan2890" dy="16.25" x="10"><tspan id="SvgjsTspan2891" style="">预制菜运输状态</tspan></tspan><tspan id="SvgjsTspan2892" dy="16.25" x="10"><tspan id="SvgjsTspan2893" style="">储存方式</tspan></tspan><tspan id="SvgjsTspan2894" dy="16.25" x="10"><tspan id="SvgjsTspan2895" style="">温度</tspan></tspan><tspan id="SvgjsTspan2896" dy="16.25" x="10"><tspan id="SvgjsTspan2897" style="">湿度</tspan></tspan><tspan id="SvgjsTspan2898" dy="16.25" x="10"><tspan id="SvgjsTspan2899" style="">含氧量</tspan></tspan><tspan id="SvgjsTspan2900" dy="16.25" x="10"><tspan id="SvgjsTspan2901" style="">上次记录时间</tspan></tspan></text></g></g><g id="SvgjsG2902"><path id="SvgjsPath2903" d="M1073.7625122070312 415.4124984741211L1093.687515258789 415.4124984741211L1093.687515258789 198.9124870300293L1187.6625183105468 198.9124870300293" stroke="#323232" stroke-width="1.5" fill="none" marker-end="url(#SvgjsMarker2904)"></path></g><g id="SvgjsG2906"><path id="SvgjsPath2907" d="M262.01251220703125 309.6458257039387L273.56251525878906 309.6458257039387L273.56251525878906 248.4124870300293L840.3125122070312 248.4124870300293" stroke="#323232" stroke-width="1.5" fill="none" marker-end="url(#SvgjsMarker2908)"></path></g><g id="SvgjsG2910" transform="translate(31.26251220703125,172.43471611870655)"><path id="SvgjsPath2911" d="M 0 4Q 0 0 4 0L 226 0Q 230 0 230 4L 230 73Q 230 77 226 77L 4 77Q 0 77 0 73Z" stroke="rgba(33,41,48,1)" stroke-width="1.5" fill-opacity="1" fill="#ffffff"></path><path id="SvgjsPath2912" d="M 0 30L 230 30" stroke="rgba(33,41,48,1)" stroke-width="1.5" fill="none"></path><path id="SvgjsPath2913" d="M 0 0L 230 0L 230 77L 0 77Z" stroke="none" fill="none"></path><g id="SvgjsG2914"><text id="SvgjsText2915" font-family="微软雅黑" text-anchor="middle" font-size="13px" width="210px" fill="#323232" font-weight="700" align="middle" lineHeight="125%" anchor="middle" family="微软雅黑" size="13px" weight="700" font-style="" opacity="1" y="4.375" transform="rotate(0)"><tspan id="SvgjsTspan2916" dy="16.25" x="115"><tspan id="SvgjsTspan2917" style="">产品营养成分表</tspan></tspan></text></g><g id="SvgjsG2918"><text id="SvgjsText2919" font-family="微软雅黑" text-anchor="start" font-size="13px" width="210px" fill="#323232" font-weight="400" align="middle" lineHeight="125%" anchor="start" family="微软雅黑" size="13px" weight="400" font-style="" opacity="1" y="34.375" transform="rotate(0)"><tspan id="SvgjsTspan2920" dy="16.25" x="10"><tspan id="SvgjsTspan2921" style="">营养成分名</tspan></tspan><tspan id="SvgjsTspan2922" dy="16.25" x="10"><tspan id="SvgjsTspan2923" style="">占比</tspan></tspan></text></g></g><g id="SvgjsG2924"><path id="SvgjsPath2925" d="M262.01251220703125 210.93471611870655L525.0125122070312 210.93471611870655L525.0125122070312 233.4124870300293L840.5625122070312 233.4124870300293" stroke="#323232" stroke-width="1.5" fill="none" marker-end="url(#SvgjsMarker2926)"></path></g><g id="SvgjsG2928"><path id="SvgjsPath2929" d="M1073.7625122070312 179.9124984741211L1132.062515258789 179.9124984741211L1132.062515258789 180.1624870300293L1188.4125183105468 180.1624870300293" stroke="#323232" stroke-width="1.5" fill="none" marker-end="url(#SvgjsMarker2930)"></path></g><g id="SvgjsG2932"><path id="SvgjsPath2933" d="M599.1125183105469 335.2624969482422L740.6375122070312 335.2624969482422L740.6375122070312 667.6069314744736L840.9125183105468 667.6069314744736" stroke="#323232" stroke-width="1.5" fill="none" marker-end="url(#SvgjsMarker2934)"></path></g><g id="SvgjsG2936"><path id="SvgjsPath2937" d="M599.1125183105469 408.80138736301L721.1125183105469 408.80138736301L721.1125183105469 687.6069314744736L841.1625183105468 687.6069314744736" stroke="#323232" stroke-width="1.5" fill="none" marker-end="url(#SvgjsMarker2938)"></path></g><g id="SvgjsG2940"><path id="SvgjsPath2941" d="M1073.7625122070312 614.55138736301L1112.437515258789 614.55138736301L1112.437515258789 216.4124870300293L1187.9125183105468 216.4124870300293" stroke="#323232" stroke-width="1.5" fill="none" marker-end="url(#SvgjsMarker2942)"></path></g></svg>