<svg id="SvgjsSvg1945" width="1445.2749633789062" height="821.5500917434692" xmlns="http://www.w3.org/2000/svg" version="1.1" xmlns:xlink="http://www.w3.org/1999/xlink" xmlns:svgjs="http://svgjs.com/svgjs"><defs id="SvgjsDefs1946"><pattern patternUnits="userSpaceOnUse" id="pattern_mark_0" width="300" height="300"><text x="150" y="100" fill="rgba(229,229,229,0.8)" font-size="18" transform="rotate(-45, 150, 150)" style="dominant-baseline: middle; text-anchor: middle;"></text></pattern><pattern patternUnits="userSpaceOnUse" id="pattern_mark_1" width="300" height="300"><text x="150" y="200" fill="rgba(229,229,229,0.8)" font-size="18" transform="rotate(-45, 150, 150)" style="dominant-baseline: middle; text-anchor: middle;"></text></pattern><marker id="SvgjsMarker2016" markerWidth="13" markerHeight="9" refX="9.5" refY="4.5" viewBox="0 0 13 9" orient="auto" markerUnits="userSpaceOnUse" stroke-dasharray="0,0"><path id="SvgjsPath2017" d="M0,0 L13,4.5 L0,9 L0,0" fill="#323232" stroke="#323232" stroke-width="1"></path></marker><marker id="SvgjsMarker2044" markerWidth="13" markerHeight="9" refX="9.5" refY="4.5" viewBox="0 0 13 9" orient="auto" markerUnits="userSpaceOnUse" stroke-dasharray="0,0"><path id="SvgjsPath2045" d="M0,0 L13,4.5 L0,9 L0,0" fill="#323232" stroke="#323232" stroke-width="1"></path></marker><marker id="SvgjsMarker2048" markerWidth="13" markerHeight="9" refX="9.5" refY="4.5" viewBox="0 0 13 9" orient="auto" markerUnits="userSpaceOnUse" stroke-dasharray="0,0"><path id="SvgjsPath2049" d="M0,0 L13,4.5 L0,9 L0,0" fill="#323232" stroke="#323232" stroke-width="1"></path></marker><marker id="SvgjsMarker2152" markerWidth="13" markerHeight="9" refX="9.5" refY="4.5" viewBox="0 0 13 9" orient="auto" markerUnits="userSpaceOnUse" stroke-dasharray="0,0"><path id="SvgjsPath2153" d="M0,0 L13,4.5 L0,9 L0,0" fill="#323232" stroke="#323232" stroke-width="1"></path></marker><marker id="SvgjsMarker2156" markerWidth="13" markerHeight="9" refX="9.5" refY="4.5" viewBox="0 0 13 9" orient="auto" markerUnits="userSpaceOnUse" stroke-dasharray="0,0"><path id="SvgjsPath2157" d="M0,0 L13,4.5 L0,9 L0,0" fill="#323232" stroke="#323232" stroke-width="1"></path></marker><marker id="SvgjsMarker2194" markerWidth="13" markerHeight="9" refX="9.5" refY="4.5" viewBox="0 0 13 9" orient="auto" markerUnits="userSpaceOnUse" stroke-dasharray="0,0"><path id="SvgjsPath2195" d="M0,0 L13,4.5 L0,9 L0,0" fill="#323232" stroke="#323232" stroke-width="1"></path></marker><marker id="SvgjsMarker2198" markerWidth="13" markerHeight="9" refX="9.5" refY="4.5" viewBox="0 0 13 9" orient="auto" markerUnits="userSpaceOnUse" stroke-dasharray="0,0"><path id="SvgjsPath2199" d="M0,0 L13,4.5 L0,9 L0,0" fill="#323232" stroke="#323232" stroke-width="1"></path></marker><marker id="SvgjsMarker2218" markerWidth="13" markerHeight="9" refX="9.5" refY="4.5" viewBox="0 0 13 9" orient="auto" markerUnits="userSpaceOnUse" stroke-dasharray="0,0"><path id="SvgjsPath2219" d="M0,0 L13,4.5 L0,9 L0,0" fill="#323232" stroke="#323232" stroke-width="1"></path></marker><marker id="SvgjsMarker2222" markerWidth="13" markerHeight="9" refX="9.5" refY="4.5" viewBox="0 0 13 9" orient="auto" markerUnits="userSpaceOnUse" stroke-dasharray="0,0"><path id="SvgjsPath2223" d="M0,0 L13,4.5 L0,9 L0,0" fill="#323232" stroke="#323232" stroke-width="1"></path></marker><marker id="SvgjsMarker2240" markerWidth="13" markerHeight="9" refX="9.5" refY="4.5" viewBox="0 0 13 9" orient="auto" markerUnits="userSpaceOnUse" stroke-dasharray="0,0"><path id="SvgjsPath2241" d="M0,0 L13,4.5 L0,9 L0,0" fill="#323232" stroke="#323232" stroke-width="1"></path></marker><marker id="SvgjsMarker2244" markerWidth="13" markerHeight="9" refX="9.5" refY="4.5" viewBox="0 0 13 9" orient="auto" markerUnits="userSpaceOnUse" stroke-dasharray="0,0"><path id="SvgjsPath2245" d="M0,0 L13,4.5 L0,9 L0,0" fill="#323232" stroke="#323232" stroke-width="1"></path></marker><marker id="SvgjsMarker2248" markerWidth="13" markerHeight="9" refX="9.5" refY="4.5" viewBox="0 0 13 9" orient="auto" markerUnits="userSpaceOnUse" stroke-dasharray="0,0"><path id="SvgjsPath2249" d="M0,0 L13,4.5 L0,9 L0,0" fill="#323232" stroke="#323232" stroke-width="1"></path></marker><marker id="SvgjsMarker2252" markerWidth="13" markerHeight="9" refX="9.5" refY="4.5" viewBox="0 0 13 9" orient="auto" markerUnits="userSpaceOnUse" stroke-dasharray="0,0"><path id="SvgjsPath2253" d="M0,0 L13,4.5 L0,9 L0,0" fill="#323232" stroke="#323232" stroke-width="1"></path></marker><marker id="SvgjsMarker2256" markerWidth="13" markerHeight="9" refX="9.5" refY="4.5" viewBox="0 0 13 9" orient="auto" markerUnits="userSpaceOnUse" stroke-dasharray="0,0"><path id="SvgjsPath2257" d="M0,0 L13,4.5 L0,9 L0,0" fill="#323232" stroke="#323232" stroke-width="1"></path></marker></defs><rect id="svgbackgroundid" width="1445.2749633789062" height="821.5500917434692" fill="transparent"></rect><rect id="SvgjsRect1948" width="1445.2749633789062" height="821.5500917434692" fill="url(#pattern_mark_0)"></rect><rect id="SvgjsRect1949" width="1445.2749633789062" height="821.5500917434692" fill="url(#pattern_mark_1)"></rect><g id="SvgjsG1950" transform="translate(843.0250091552734,76.4000244140625)"><path id="SvgjsPath1951" d="M 0 4Q 0 0 4 0L 226 0Q 230 0 230 4L 230 203Q 230 207 226 207L 4 207Q 0 207 0 203Z" stroke="rgba(33,41,48,1)" stroke-width="1.5" fill-opacity="1" fill="#ffffff"></path><path id="SvgjsPath1952" d="M 0 30L 230 30" stroke="rgba(33,41,48,1)" stroke-width="1.5" fill="none"></path><path id="SvgjsPath1953" d="M 0 0L 230 0L 230 207L 0 207Z" stroke="none" fill="none"></path><g id="SvgjsG1954"><text id="SvgjsText1955" font-family="微软雅黑" text-anchor="middle" font-size="13px" width="210px" fill="#323232" font-weight="700" align="middle" lineHeight="125%" anchor="middle" family="微软雅黑" size="13px" weight="700" font-style="" opacity="1" y="4.375" transform="rotate(0)"><tspan id="SvgjsTspan1956" dy="16.25" x="115"><tspan id="SvgjsTspan1957" style="">预制菜类型</tspan></tspan></text></g><g id="SvgjsG1958"><text id="SvgjsText1959" font-family="微软雅黑" text-anchor="start" font-size="13px" width="210px" fill="#323232" font-weight="400" align="middle" lineHeight="125%" anchor="start" family="微软雅黑" size="13px" weight="400" font-style="" opacity="1" y="34.375" transform="rotate(0)"><tspan id="SvgjsTspan1960" dy="16.25" x="10"><tspan id="SvgjsTspan1961" style="">产品名称</tspan></tspan><tspan id="SvgjsTspan1962" dy="16.25" x="10"><tspan id="SvgjsTspan1963" style="">产品认证日期</tspan></tspan><tspan id="SvgjsTspan1964" dy="16.25" x="10"><tspan id="SvgjsTspan1965" style="">产品认证有效期</tspan></tspan><tspan id="SvgjsTspan1966" dy="16.25" x="10"><tspan id="SvgjsTspan1967" style="">产品描述</tspan></tspan><tspan id="SvgjsTspan1968" dy="16.25" x="10"><tspan id="SvgjsTspan1969" style=""> </tspan></tspan><tspan id="SvgjsTspan1970" dy="16.25" x="10"><tspan id="SvgjsTspan1971" style="">产品预览图</tspan></tspan><tspan id="SvgjsTspan1972" dy="16.25" x="10"><tspan id="SvgjsTspan1973" style="">制作环境真实摄制图片</tspan></tspan><tspan id="SvgjsTspan1974" dy="16.25" x="10"><tspan id="SvgjsTspan1975" style="">产品营养成分表</tspan></tspan><tspan id="SvgjsTspan1976" dy="16.25" x="10"><tspan id="SvgjsTspan1977" style="">产品销量热度统计表</tspan></tspan><tspan id="SvgjsTspan1978" dy="16.25" x="10"><tspan id="SvgjsTspan1979" style="">产品评论区</tspan></tspan></text></g></g><g id="SvgjsG1980" transform="translate(1190.2750091552734,136.2500228881836)"><path id="SvgjsPath1981" d="M 0 4Q 0 0 4 0L 226 0Q 230 0 230 4L 230 105Q 230 109 226 109L 4 109Q 0 109 0 105Z" stroke="rgba(0,0,0,1)" stroke-width="1.5" fill-opacity="1" fill="#ffffff"></path><path id="SvgjsPath1982" d="M 0 30L 230 30" stroke="rgba(0,0,0,1)" stroke-width="1.5" fill="none"></path><path id="SvgjsPath1983" d="M 0 0L 230 0L 230 109L 0 109Z" stroke="none" fill="none"></path><g id="SvgjsG1984"><text id="SvgjsText1985" font-family="微软雅黑" text-anchor="middle" font-size="13px" width="210px" fill="#323232" font-weight="700" align="middle" lineHeight="125%" anchor="middle" family="微软雅黑" size="13px" weight="700" font-style="" opacity="1" y="4.375" transform="rotate(0)"><tspan id="SvgjsTspan1986" dy="16.25" x="115"><tspan id="SvgjsTspan1987" style="">预制菜</tspan></tspan></text></g><g id="SvgjsG1988"><text id="SvgjsText1989" font-family="微软雅黑" text-anchor="start" font-size="13px" width="210px" fill="#323232" font-weight="400" align="middle" lineHeight="125%" anchor="start" family="微软雅黑" size="13px" weight="400" font-style="" opacity="1" y="34.375" transform="rotate(0)"><tspan id="SvgjsTspan1990" dy="16.25" x="10"><tspan id="SvgjsTspan1991" style="">预制菜类型</tspan></tspan><tspan id="SvgjsTspan1992" dy="16.25" x="10"><tspan id="SvgjsTspan1993" style="">运输链详情</tspan></tspan><tspan id="SvgjsTspan1994" dy="16.25" x="10"><tspan id="SvgjsTspan1995" style="">产品原料表</tspan></tspan><tspan id="SvgjsTspan1996" dy="16.25" x="10"><tspan id="SvgjsTspan1997" style="">制作信息</tspan></tspan></text></g></g><g id="SvgjsG1998" transform="translate(31.275009155273438,369.8444612291123)"><path id="SvgjsPath1999" d="M 0 4Q 0 0 4 0L 226 0Q 230 0 230 4L 230 89Q 230 93 226 93L 4 93Q 0 93 0 89Z" stroke="rgba(33,41,48,1)" stroke-width="1.5" fill-opacity="1" fill="#ffffff"></path><path id="SvgjsPath2000" d="M 0 30L 230 30" stroke="rgba(33,41,48,1)" stroke-width="1.5" fill="none"></path><path id="SvgjsPath2001" d="M 0 0L 230 0L 230 93L 0 93Z" stroke="none" fill="none"></path><g id="SvgjsG2002"><text id="SvgjsText2003" font-family="微软雅黑" text-anchor="middle" font-size="13px" width="210px" fill="#323232" font-weight="700" align="middle" lineHeight="125%" anchor="middle" family="微软雅黑" size="13px" weight="700" font-style="" opacity="1" y="4.375" transform="rotate(0)"><tspan id="SvgjsTspan2004" dy="16.25" x="115"><tspan id="SvgjsTspan2005" style="">产品评论区</tspan></tspan></text></g><g id="SvgjsG2006"><text id="SvgjsText2007" font-family="微软雅黑" text-anchor="start" font-size="13px" width="210px" fill="#323232" font-weight="400" align="middle" lineHeight="125%" anchor="start" family="微软雅黑" size="13px" weight="400" font-style="" opacity="1" y="34.375" transform="rotate(0)"><tspan id="SvgjsTspan2008" dy="16.25" x="10"><tspan id="SvgjsTspan2009" style="">用户名</tspan></tspan><tspan id="SvgjsTspan2010" dy="16.25" x="10"><tspan id="SvgjsTspan2011" style="">评分</tspan></tspan><tspan id="SvgjsTspan2012" dy="16.25" x="10"><tspan id="SvgjsTspan2013" style="">评论内容</tspan></tspan></text></g></g><g id="SvgjsG2014"><path id="SvgjsPath2015" d="M262.02500915527344 416.3444612291123L281.27500915527344 416.3444612291123L281.27500915527344 268.4000244140625L841.0750091552734 268.4000244140625" stroke="#323232" stroke-width="1.5" fill="none" marker-end="url(#SvgjsMarker2016)"></path></g><g id="SvgjsG2018" transform="translate(25.025009155273438,25.000022888183594)"><path id="SvgjsPath2019" d="M 0 4Q 0 0 4 0L 226 0Q 230 0 230 4L 230 56Q 230 60 226 60L 4 60Q 0 60 0 56Z" stroke="rgba(33,41,48,1)" stroke-width="1.5" fill-opacity="1" fill="#ffffff"></path><path id="SvgjsPath2020" d="M 0 30L 230 30" stroke="rgba(33,41,48,1)" stroke-width="1.5" fill="none"></path><path id="SvgjsPath2021" d="M 0 0L 230 0L 230 60L 0 60Z" stroke="none" fill="none"></path><g id="SvgjsG2022"><text id="SvgjsText2023" font-family="微软雅黑" text-anchor="middle" font-size="13px" width="210px" fill="#323232" font-weight="700" align="middle" lineHeight="125%" anchor="middle" family="微软雅黑" size="13px" weight="700" font-style="" opacity="1" y="4.375" transform="rotate(0)"><tspan id="SvgjsTspan2024" dy="16.25" x="115"><tspan id="SvgjsTspan2025" style="">产品预览图</tspan></tspan></text></g><g id="SvgjsG2026"><text id="SvgjsText2027" font-family="微软雅黑" text-anchor="start" font-size="13px" width="210px" fill="#323232" font-weight="400" align="middle" lineHeight="125%" anchor="start" family="微软雅黑" size="13px" weight="400" font-style="" opacity="1" y="34.375" transform="rotate(0)"><tspan id="SvgjsTspan2028" dy="16.25" x="10"><tspan id="SvgjsTspan2029" style="">图片</tspan></tspan></text></g></g><g id="SvgjsG2030" transform="translate(25.025009155273438,98.71113247341577)"><path id="SvgjsPath2031" d="M 0 4Q 0 0 4 0L 226 0Q 230 0 230 4L 230 56Q 230 60 226 60L 4 60Q 0 60 0 56Z" stroke="rgba(33,41,48,1)" stroke-width="1.5" fill-opacity="1" fill="#ffffff"></path><path id="SvgjsPath2032" d="M 0 30L 230 30" stroke="rgba(33,41,48,1)" stroke-width="1.5" fill="none"></path><path id="SvgjsPath2033" d="M 0 0L 230 0L 230 60L 0 60Z" stroke="none" fill="none"></path><g id="SvgjsG2034"><text id="SvgjsText2035" font-family="微软雅黑" text-anchor="middle" font-size="13px" width="210px" fill="#323232" font-weight="700" align="middle" lineHeight="125%" anchor="middle" family="微软雅黑" size="13px" weight="700" font-style="" opacity="1" y="4.375" transform="rotate(0)"><tspan id="SvgjsTspan2036" dy="16.25" x="115"><tspan id="SvgjsTspan2037" style="">制作环境真实摄制图片</tspan></tspan></text></g><g id="SvgjsG2038"><text id="SvgjsText2039" font-family="微软雅黑" text-anchor="start" font-size="13px" width="210px" fill="#323232" font-weight="400" align="middle" lineHeight="125%" anchor="start" family="微软雅黑" size="13px" weight="400" font-style="" opacity="1" y="34.375" transform="rotate(0)"><tspan id="SvgjsTspan2040" dy="16.25" x="10"><tspan id="SvgjsTspan2041" style="">图片</tspan></tspan></text></g></g><g id="SvgjsG2042"><path id="SvgjsPath2043" d="M255.77500915527344 128.71113247341577L539.9500122070312 128.71113247341577L539.9500122070312 197.4000244140625L840.925015258789 197.4000244140625" stroke="#323232" stroke-width="1.5" fill="none" marker-end="url(#SvgjsMarker2044)"></path></g><g id="SvgjsG2046"><path id="SvgjsPath2047" d="M255.77500915527344 55.000022888183594L549.0250091552734 55.000022888183594L549.0250091552734 180.4000244140625L840.3250091552734 180.4000244140625" stroke="#323232" stroke-width="1.5" fill="none" marker-end="url(#SvgjsMarker2048)"></path></g><g id="SvgjsG2050" transform="translate(843.0250091552734,444.5389133029514)"><path id="SvgjsPath2051" d="M 0 4Q 0 0 4 0L 226 0Q 230 0 230 4L 230 170Q 230 174 226 174L 4 174Q 0 174 0 170Z" stroke="rgba(0,0,0,1)" stroke-width="1.5" fill-opacity="1" fill="#ffffff"></path><path id="SvgjsPath2052" d="M 0 30L 230 30" stroke="rgba(0,0,0,1)" stroke-width="1.5" fill="none"></path><path id="SvgjsPath2053" d="M 0 0L 230 0L 230 174L 0 174Z" stroke="none" fill="none"></path><g id="SvgjsG2054"><text id="SvgjsText2055" font-family="微软雅黑" text-anchor="middle" font-size="13px" width="210px" fill="#323232" font-weight="700" align="middle" lineHeight="125%" anchor="middle" family="微软雅黑" size="13px" weight="700" font-style="" opacity="1" y="4.375" transform="rotate(0)"><tspan id="SvgjsTspan2056" dy="16.25" x="115"><tspan id="SvgjsTspan2057" style="">原料数据表</tspan></tspan></text></g><g id="SvgjsG2058"><text id="SvgjsText2059" font-family="微软雅黑" text-anchor="start" font-size="13px" width="210px" fill="#323232" font-weight="400" align="middle" lineHeight="125%" anchor="start" family="微软雅黑" size="13px" weight="400" font-style="" opacity="1" y="34.375" transform="rotate(0)"><tspan id="SvgjsTspan2060" dy="16.25" x="10"><tspan id="SvgjsTspan2061" style="">原料名</tspan></tspan><tspan id="SvgjsTspan2062" dy="16.25" x="10"><tspan id="SvgjsTspan2063" style="">供应商</tspan></tspan><tspan id="SvgjsTspan2064" dy="16.25" x="10"><tspan id="SvgjsTspan2065" style="">原料产地</tspan></tspan><tspan id="SvgjsTspan2066" dy="16.25" x="10"><tspan id="SvgjsTspan2067" style="">购入时间</tspan></tspan><tspan id="SvgjsTspan2068" dy="16.25" x="10"><tspan id="SvgjsTspan2069" style="">检验报告</tspan></tspan><tspan id="SvgjsTspan2070" dy="16.25" x="10"><tspan id="SvgjsTspan2071" style="">储存方式</tspan></tspan><tspan id="SvgjsTspan2072" dy="16.25" x="10"><tspan id="SvgjsTspan2073" style="">养殖区/产地展示图</tspan></tspan><tspan id="SvgjsTspan2074" dy="16.25" x="10"><tspan id="SvgjsTspan2075" style="">贮存区展示图</tspan></tspan></text></g></g><g id="SvgjsG2076" transform="translate(31.275009155273438,263.13335164388013)"><path id="SvgjsPath2077" d="M 0 4Q 0 0 4 0L 226 0Q 230 0 230 4L 230 89Q 230 93 226 93L 4 93Q 0 93 0 89Z" stroke="rgba(0,0,0,1)" stroke-width="1.5" fill-opacity="1" fill="#ffffff"></path><path id="SvgjsPath2078" d="M 0 30L 230 30" stroke="rgba(0,0,0,1)" stroke-width="1.5" fill="none"></path><path id="SvgjsPath2079" d="M 0 0L 230 0L 230 93L 0 93Z" stroke="none" fill="none"></path><g id="SvgjsG2080"><text id="SvgjsText2081" font-family="微软雅黑" text-anchor="middle" font-size="13px" width="210px" fill="#323232" font-weight="700" align="middle" lineHeight="125%" anchor="middle" family="微软雅黑" size="13px" weight="700" font-style="" opacity="1" y="4.375" transform="rotate(0)"><tspan id="SvgjsTspan2082" dy="16.25" x="115"><tspan id="SvgjsTspan2083" style="">产品销量热度统计表</tspan></tspan></text></g><g id="SvgjsG2084"><text id="SvgjsText2085" font-family="微软雅黑" text-anchor="start" font-size="13px" width="210px" fill="#323232" font-weight="400" align="middle" lineHeight="125%" anchor="start" family="微软雅黑" size="13px" weight="400" font-style="" opacity="1" y="34.375" transform="rotate(0)"><tspan id="SvgjsTspan2086" dy="16.25" x="10"><tspan id="SvgjsTspan2087" style="">销售区</tspan></tspan><tspan id="SvgjsTspan2088" dy="16.25" x="10"><tspan id="SvgjsTspan2089" style="">月度（某年某月）</tspan></tspan><tspan id="SvgjsTspan2090" dy="16.25" x="10"><tspan id="SvgjsTspan2091" style="">销售量</tspan></tspan></text></g></g><g id="SvgjsG2092" transform="translate(843.0250091552734,648.6889148288303)"><path id="SvgjsPath2093" d="M 0 4Q 0 0 4 0L 226 0Q 230 0 230 4L 230 105Q 230 109 226 109L 4 109Q 0 109 0 105Z" stroke="rgba(0,0,0,1)" stroke-width="1.5" fill-opacity="1" fill="#ffffff"></path><path id="SvgjsPath2094" d="M 0 30L 230 30" stroke="rgba(0,0,0,1)" stroke-width="1.5" fill="none"></path><path id="SvgjsPath2095" d="M 0 0L 230 0L 230 109L 0 109Z" stroke="none" fill="none"></path><g id="SvgjsG2096"><text id="SvgjsText2097" font-family="微软雅黑" text-anchor="middle" font-size="13px" width="210px" fill="#323232" font-weight="700" align="middle" lineHeight="125%" anchor="middle" family="微软雅黑" size="13px" weight="700" font-style="" opacity="1" y="4.375" transform="rotate(0)"><tspan id="SvgjsTspan2098" dy="16.25" x="115"><tspan id="SvgjsTspan2099" style="">制作信息</tspan></tspan></text></g><g id="SvgjsG2100"><text id="SvgjsText2101" font-family="微软雅黑" text-anchor="start" font-size="13px" width="210px" fill="#323232" font-weight="400" align="middle" lineHeight="125%" anchor="start" family="微软雅黑" size="13px" weight="400" font-style="" opacity="1" y="34.375" transform="rotate(0)"><tspan id="SvgjsTspan2102" dy="16.25" x="10"><tspan id="SvgjsTspan2103" style="">制作流程</tspan></tspan><tspan id="SvgjsTspan2104" dy="16.25" x="10"><tspan id="SvgjsTspan2105" style="">配料表</tspan></tspan><tspan id="SvgjsTspan2106" dy="16.25" x="10"><tspan id="SvgjsTspan2107" style="">制作设备信息</tspan></tspan><tspan id="SvgjsTspan2108" dy="16.25" x="10"><tspan id="SvgjsTspan2109" style="">制作人员信息</tspan></tspan></text></g></g><g id="SvgjsG2110" transform="translate(368.37501525878906,305.2500228881836)"><path id="SvgjsPath2111" d="M 0 4Q 0 0 4 0L 226 0Q 230 0 230 4L 230 56Q 230 60 226 60L 4 60Q 0 60 0 56Z" stroke="rgba(0,0,0,1)" stroke-width="1.5" fill-opacity="1" fill="#ffffff"></path><path id="SvgjsPath2112" d="M 0 30L 230 30" stroke="rgba(0,0,0,1)" stroke-width="1.5" fill="none"></path><path id="SvgjsPath2113" d="M 0 0L 230 0L 230 60L 0 60Z" stroke="none" fill="none"></path><g id="SvgjsG2114"><text id="SvgjsText2115" font-family="微软雅黑" text-anchor="middle" font-size="13px" width="210px" fill="#323232" font-weight="700" align="middle" lineHeight="125%" anchor="middle" family="微软雅黑" size="13px" weight="700" font-style="" opacity="1" y="4.375" transform="rotate(0)"><tspan id="SvgjsTspan2116" dy="16.25" x="115"><tspan id="SvgjsTspan2117" style="">养殖区/产地展示图</tspan></tspan></text></g><g id="SvgjsG2118"><text id="SvgjsText2119" font-family="微软雅黑" text-anchor="start" font-size="13px" width="210px" fill="#323232" font-weight="400" align="middle" lineHeight="125%" anchor="start" family="微软雅黑" size="13px" weight="400" font-style="" opacity="1" y="34.375" transform="rotate(0)"><tspan id="SvgjsTspan2120" dy="16.25" x="10"><tspan id="SvgjsTspan2121" style="">图片</tspan></tspan></text></g></g><g id="SvgjsG2122" transform="translate(368.37501525878906,378.7889133029514)"><path id="SvgjsPath2123" d="M 0 4Q 0 0 4 0L 226 0Q 230 0 230 4L 230 56Q 230 60 226 60L 4 60Q 0 60 0 56Z" stroke="rgba(33,41,48,1)" stroke-width="1.5" fill-opacity="1" fill="#ffffff"></path><path id="SvgjsPath2124" d="M 0 30L 230 30" stroke="rgba(33,41,48,1)" stroke-width="1.5" fill="none"></path><path id="SvgjsPath2125" d="M 0 0L 230 0L 230 60L 0 60Z" stroke="none" fill="none"></path><g id="SvgjsG2126"><text id="SvgjsText2127" font-family="微软雅黑" text-anchor="middle" font-size="13px" width="210px" fill="#323232" font-weight="700" align="middle" lineHeight="125%" anchor="middle" family="微软雅黑" size="13px" weight="700" font-style="" opacity="1" y="4.375" transform="rotate(0)"><tspan id="SvgjsTspan2128" dy="16.25" x="115"><tspan id="SvgjsTspan2129" style="">贮存区展示图</tspan></tspan></text></g><g id="SvgjsG2130"><text id="SvgjsText2131" font-family="微软雅黑" text-anchor="start" font-size="13px" width="210px" fill="#323232" font-weight="400" align="middle" lineHeight="125%" anchor="start" family="微软雅黑" size="13px" weight="400" font-style="" opacity="1" y="34.375" transform="rotate(0)"><tspan id="SvgjsTspan2132" dy="16.25" x="10"><tspan id="SvgjsTspan2133" style="">图片</tspan></tspan></text></g></g><g id="SvgjsG2134" transform="translate(368.37501525878906,459.7889133029514)"><path id="SvgjsPath2135" d="M 0 4Q 0 0 4 0L 226 0Q 230 0 230 4L 230 89Q 230 93 226 93L 4 93Q 0 93 0 89Z" stroke="rgba(33,41,48,1)" stroke-width="1.5" fill-opacity="1" fill="#ffffff"></path><path id="SvgjsPath2136" d="M 0 30L 230 30" stroke="rgba(33,41,48,1)" stroke-width="1.5" fill="none"></path><path id="SvgjsPath2137" d="M 0 0L 230 0L 230 93L 0 93Z" stroke="none" fill="none"></path><g id="SvgjsG2138"><text id="SvgjsText2139" font-family="微软雅黑" text-anchor="middle" font-size="13px" width="210px" fill="#323232" font-weight="700" align="middle" lineHeight="125%" anchor="middle" family="微软雅黑" size="13px" weight="700" font-style="" opacity="1" y="4.375" transform="rotate(0)"><tspan id="SvgjsTspan2140" dy="16.25" x="115"><tspan id="SvgjsTspan2141" style="">配料表</tspan></tspan></text></g><g id="SvgjsG2142"><text id="SvgjsText2143" font-family="微软雅黑" text-anchor="start" font-size="13px" width="210px" fill="#323232" font-weight="400" align="middle" lineHeight="125%" anchor="start" family="微软雅黑" size="13px" weight="400" font-style="" opacity="1" y="34.375" transform="rotate(0)"><tspan id="SvgjsTspan2144" dy="16.25" x="10"><tspan id="SvgjsTspan2145" style="">配料名称</tspan></tspan><tspan id="SvgjsTspan2146" dy="16.25" x="10"><tspan id="SvgjsTspan2147" style="">配料制作厂商</tspan></tspan><tspan id="SvgjsTspan2148" dy="16.25" x="10"><tspan id="SvgjsTspan2149" style="">配料用量</tspan></tspan></text></g></g><g id="SvgjsG2150"><path id="SvgjsPath2151" d="M599.1250152587891 506.2889133029514L638.2500152587891 506.2889133029514L638.2500152587891 710.1500129699707L840.5250265033804 710.5447455507037" stroke="#323232" stroke-width="1.5" fill="none" marker-end="url(#SvgjsMarker2152)"></path></g><g id="SvgjsG2154"><path id="SvgjsPath2155" d="M1073.7750091552734 703.1889148288303L1131.8250122070312 703.1889148288303L1131.8250122070312 230.1500129699707L1187.925015258789 230.1500129699707" stroke="#323232" stroke-width="1.5" fill="none" marker-end="url(#SvgjsMarker2156)"></path></g><g id="SvgjsG2158" transform="translate(368.37501525878906,573.7889133029514)"><path id="SvgjsPath2159" d="M 0 4Q 0 0 4 0L 226 0Q 230 0 230 4L 230 89Q 230 93 226 93L 4 93Q 0 93 0 89Z" stroke="rgba(0,0,0,1)" stroke-width="1.5" fill-opacity="1" fill="#ffffff"></path><path id="SvgjsPath2160" d="M 0 30L 230 30" stroke="rgba(0,0,0,1)" stroke-width="1.5" fill="none"></path><path id="SvgjsPath2161" d="M 0 0L 230 0L 230 93L 0 93Z" stroke="none" fill="none"></path><g id="SvgjsG2162"><text id="SvgjsText2163" font-family="微软雅黑" text-anchor="middle" font-size="13px" width="210px" fill="#323232" font-weight="700" align="middle" lineHeight="125%" anchor="middle" family="微软雅黑" size="13px" weight="700" font-style="" opacity="1" y="4.375" transform="rotate(0)"><tspan id="SvgjsTspan2164" dy="16.25" x="115"><tspan id="SvgjsTspan2165" style="">制作设备信息</tspan></tspan></text></g><g id="SvgjsG2166"><text id="SvgjsText2167" font-family="微软雅黑" text-anchor="start" font-size="13px" width="210px" fill="#323232" font-weight="400" align="middle" lineHeight="125%" anchor="start" family="微软雅黑" size="13px" weight="400" font-style="" opacity="1" y="34.375" transform="rotate(0)"><tspan id="SvgjsTspan2168" dy="16.25" x="10"><tspan id="SvgjsTspan2169" style="">设备类型</tspan></tspan><tspan id="SvgjsTspan2170" dy="16.25" x="10"><tspan id="SvgjsTspan2171" style="">设备型号</tspan></tspan><tspan id="SvgjsTspan2172" dy="16.25" x="10"><tspan id="SvgjsTspan2173" style="">至今检修间隔</tspan></tspan></text></g></g><g id="SvgjsG2174" transform="translate(368.37501525878906,687.7889133029514)"><path id="SvgjsPath2175" d="M 0 4Q 0 0 4 0L 226 0Q 230 0 230 4L 230 105Q 230 109 226 109L 4 109Q 0 109 0 105Z" stroke="rgba(33,41,48,1)" stroke-width="1.5" fill-opacity="1" fill="#ffffff"></path><path id="SvgjsPath2176" d="M 0 30L 230 30" stroke="rgba(33,41,48,1)" stroke-width="1.5" fill="none"></path><path id="SvgjsPath2177" d="M 0 0L 230 0L 230 109L 0 109Z" stroke="none" fill="none"></path><g id="SvgjsG2178"><text id="SvgjsText2179" font-family="微软雅黑" text-anchor="middle" font-size="13px" width="210px" fill="#323232" font-weight="700" align="middle" lineHeight="125%" anchor="middle" family="微软雅黑" size="13px" weight="700" font-style="" opacity="1" y="4.375" transform="rotate(0)"><tspan id="SvgjsTspan2180" dy="16.25" x="115"><tspan id="SvgjsTspan2181" style="">制作人员信息</tspan></tspan></text></g><g id="SvgjsG2182"><text id="SvgjsText2183" font-family="微软雅黑" text-anchor="start" font-size="13px" width="210px" fill="#323232" font-weight="400" align="middle" lineHeight="125%" anchor="start" family="微软雅黑" size="13px" weight="400" font-style="" opacity="1" y="34.375" transform="rotate(0)"><tspan id="SvgjsTspan2184" dy="16.25" x="10"><tspan id="SvgjsTspan2185" style="">员工名称</tspan></tspan><tspan id="SvgjsTspan2186" dy="16.25" x="10"><tspan id="SvgjsTspan2187" style="">员工编号</tspan></tspan><tspan id="SvgjsTspan2188" dy="16.25" x="10"><tspan id="SvgjsTspan2189" style="">员工职责</tspan></tspan><tspan id="SvgjsTspan2190" dy="16.25" x="10"><tspan id="SvgjsTspan2191" style="">员工健康状况</tspan></tspan></text></g></g><g id="SvgjsG2192"><path id="SvgjsPath2193" d="M599.1250152587891 620.2889133029514L618.0625152587891 620.2889133029514L618.0625152587891 726.4000129699707L840.275025632314 726.7952126178635" stroke="#323232" stroke-width="1.5" fill="none" marker-end="url(#SvgjsMarker2194)"></path></g><g id="SvgjsG2196"><path id="SvgjsPath2197" d="M599.1250137667463 742.2874172875833L840.7750267336588 741.805400151175" stroke="#323232" stroke-width="1.5" fill="none" marker-end="url(#SvgjsMarker2198)"></path></g><g id="SvgjsG2200" transform="translate(843.0250091552734,312.7500228881836)"><path id="SvgjsPath2201" d="M 0 4Q 0 0 4 0L 226 0Q 230 0 230 4L 230 105Q 230 109 226 109L 4 109Q 0 109 0 105Z" stroke="rgba(0,0,0,1)" stroke-width="1.5" fill-opacity="1" fill="#ffffff"></path><path id="SvgjsPath2202" d="M 0 30L 230 30" stroke="rgba(0,0,0,1)" stroke-width="1.5" fill="none"></path><path id="SvgjsPath2203" d="M 0 0L 230 0L 230 109L 0 109Z" stroke="none" fill="none"></path><g id="SvgjsG2204"><text id="SvgjsText2205" font-family="微软雅黑" text-anchor="middle" font-size="13px" width="210px" fill="#323232" font-weight="700" align="middle" lineHeight="125%" anchor="middle" family="微软雅黑" size="13px" weight="700" font-style="" opacity="1" y="4.375" transform="rotate(0)"><tspan id="SvgjsTspan2206" dy="16.25" x="115"><tspan id="SvgjsTspan2207" style="">运输链</tspan></tspan></text></g><g id="SvgjsG2208"><text id="SvgjsText2209" font-family="微软雅黑" text-anchor="start" font-size="13px" width="210px" fill="#323232" font-weight="400" align="middle" lineHeight="125%" anchor="start" family="微软雅黑" size="13px" weight="400" font-style="" opacity="1" y="34.375" transform="rotate(0)"><tspan id="SvgjsTspan2210" dy="16.25" x="10"><tspan id="SvgjsTspan2211" style="">所在地运出日期</tspan></tspan><tspan id="SvgjsTspan2212" dy="16.25" x="10"><tspan id="SvgjsTspan2213" style="">转入日期</tspan></tspan><tspan id="SvgjsTspan2214" dy="16.25" x="10"><tspan id="SvgjsTspan2215" style="">运输批次号</tspan></tspan></text></g></g><g id="SvgjsG2216"><path id="SvgjsPath2217" d="M1073.7750091552734 367.2500228881836L1098.5750122070312 367.2500228881836L1098.5750122070312 198.9000129699707L1187.675015258789 198.9000129699707" stroke="#323232" stroke-width="1.5" fill="none" marker-end="url(#SvgjsMarker2218)"></path></g><g id="SvgjsG2220"><path id="SvgjsPath2221" d="M262.02500915527344 309.63335164388013L273.57501220703125 309.63335164388013L273.57501220703125 248.4000129699707L840.3250091552734 248.4000129699707" stroke="#323232" stroke-width="1.5" fill="none" marker-end="url(#SvgjsMarker2222)"></path></g><g id="SvgjsG2224" transform="translate(31.275009155273438,172.42224205864795)"><path id="SvgjsPath2225" d="M 0 4Q 0 0 4 0L 226 0Q 230 0 230 4L 230 73Q 230 77 226 77L 4 77Q 0 77 0 73Z" stroke="rgba(33,41,48,1)" stroke-width="1.5" fill-opacity="1" fill="#ffffff"></path><path id="SvgjsPath2226" d="M 0 30L 230 30" stroke="rgba(33,41,48,1)" stroke-width="1.5" fill="none"></path><path id="SvgjsPath2227" d="M 0 0L 230 0L 230 77L 0 77Z" stroke="none" fill="none"></path><g id="SvgjsG2228"><text id="SvgjsText2229" font-family="微软雅黑" text-anchor="middle" font-size="13px" width="210px" fill="#323232" font-weight="700" align="middle" lineHeight="125%" anchor="middle" family="微软雅黑" size="13px" weight="700" font-style="" opacity="1" y="4.375" transform="rotate(0)"><tspan id="SvgjsTspan2230" dy="16.25" x="115"><tspan id="SvgjsTspan2231" style="">产品营养成分表</tspan></tspan></text></g><g id="SvgjsG2232"><text id="SvgjsText2233" font-family="微软雅黑" text-anchor="start" font-size="13px" width="210px" fill="#323232" font-weight="400" align="middle" lineHeight="125%" anchor="start" family="微软雅黑" size="13px" weight="400" font-style="" opacity="1" y="34.375" transform="rotate(0)"><tspan id="SvgjsTspan2234" dy="16.25" x="10"><tspan id="SvgjsTspan2235" style="">营养成分名</tspan></tspan><tspan id="SvgjsTspan2236" dy="16.25" x="10"><tspan id="SvgjsTspan2237" style="">占比</tspan></tspan></text></g></g><g id="SvgjsG2238"><path id="SvgjsPath2239" d="M262.02500915527344 210.92224205864795L525.0250091552734 210.92224205864795L525.0250091552734 233.4000129699707L840.5750091552734 233.4000129699707" stroke="#323232" stroke-width="1.5" fill="none" marker-end="url(#SvgjsMarker2240)"></path></g><g id="SvgjsG2242"><path id="SvgjsPath2243" d="M1073.7750074750377 179.90161197534277L1188.4250213076377 180.14429774936167" stroke="#323232" stroke-width="1.5" fill="none" marker-end="url(#SvgjsMarker2244)"></path></g><g id="SvgjsG2246"><path id="SvgjsPath2247" d="M599.1250152587891 335.2500228881836L626.6500091552734 335.2500228881836L626.6500091552734 387.09445741441516L735.1375122070312 387.09445741441516L735.1375122070312 584.5944574144152L840.925015258789 584.5944574144152" stroke="#323232" stroke-width="1.5" fill="none" marker-end="url(#SvgjsMarker2248)"></path></g><g id="SvgjsG2250"><path id="SvgjsPath2251" d="M599.1250152587891 408.7889133029514L721.1250152587891 408.7889133029514L721.1250152587891 604.5944574144152L841.175015258789 604.5944574144152" stroke="#323232" stroke-width="1.5" fill="none" marker-end="url(#SvgjsMarker2252)"></path></g><g id="SvgjsG2254"><path id="SvgjsPath2255" d="M1073.7750091552734 531.5389133029514L1112.4500122070312 531.5389133029514L1112.4500122070312 216.4000129699707L1187.925015258789 216.4000129699707" stroke="#323232" stroke-width="1.5" fill="none" marker-end="url(#SvgjsMarker2256)"></path></g></svg>